<svg width="16" height="17" viewBox="0 0 16 17" fill="none" xmlns="http://www.w3.org/2000/svg">
<g clip-path="url(#clip0_1_292)">
<path fill-rule="evenodd" clip-rule="evenodd" d="M10.6667 10.5C11.5373 10.5 12.2787 11.0567 12.5533 11.8333H13.3333C13.5101 11.8333 13.6797 11.9036 13.8047 12.0286C13.9298 12.1536 14 12.3232 14 12.5C14 12.6768 13.9298 12.8464 13.8047 12.9714C13.6797 13.0964 13.5101 13.1667 13.3333 13.1667H12.5533C12.4156 13.557 12.1602 13.895 11.8223 14.1341C11.4844 14.3732 11.0806 14.5016 10.6667 14.5016C10.2527 14.5016 9.84897 14.3732 9.51107 14.1341C9.17316 13.895 8.91774 13.557 8.78 13.1667H2.66667C2.48986 13.1667 2.32029 13.0964 2.19526 12.9714C2.07024 12.8464 2 12.6768 2 12.5C2 12.3232 2.07024 12.1536 2.19526 12.0286C2.32029 11.9036 2.48986 11.8333 2.66667 11.8333H8.78C8.91801 11.4433 9.17355 11.1056 9.51143 10.8668C9.84932 10.628 10.2529 10.4999 10.6667 10.5ZM10.6667 11.8333C10.4899 11.8333 10.3203 11.9036 10.1953 12.0286C10.0702 12.1536 10 12.3232 10 12.5C10 12.6768 10.0702 12.8464 10.1953 12.9714C10.3203 13.0964 10.4899 13.1667 10.6667 13.1667C10.8435 13.1667 11.013 13.0964 11.1381 12.9714C11.2631 12.8464 11.3333 12.6768 11.3333 12.5C11.3333 12.3232 11.2631 12.1536 11.1381 12.0286C11.013 11.9036 10.8435 11.8333 10.6667 11.8333ZM5.33333 6.5C5.72599 6.49995 6.10998 6.61548 6.43742 6.83219C6.76486 7.04891 7.02127 7.35721 7.17467 7.71867L7.21933 7.83333H13.3333C13.5033 7.83352 13.6667 7.89859 13.7902 8.01523C13.9138 8.13188 13.9882 8.2913 13.9981 8.46093C14.0081 8.63056 13.9529 8.79759 13.8438 8.92789C13.7348 9.05819 13.5801 9.14193 13.4113 9.162L13.3333 9.16667H7.22C7.0856 9.54686 6.83945 9.87756 6.51382 10.1154C6.18819 10.3533 5.79829 10.4872 5.39523 10.4996C4.99218 10.512 4.59478 10.4023 4.25515 10.1849C3.91552 9.9675 3.64951 9.65255 3.492 9.28133L3.44667 9.16667H2.66667C2.49675 9.16648 2.33331 9.10141 2.20975 8.98477C2.0862 8.86812 2.01184 8.7087 2.00189 8.53907C1.99193 8.36944 2.04712 8.20241 2.15618 8.07211C2.26524 7.94181 2.41994 7.85807 2.58867 7.838L2.66667 7.83333H3.44667C3.58467 7.44328 3.84021 7.10561 4.1781 6.86683C4.51598 6.62804 4.91959 6.49988 5.33333 6.5ZM5.33333 7.83333C5.15652 7.83333 4.98695 7.90357 4.86193 8.0286C4.7369 8.15362 4.66667 8.32319 4.66667 8.5C4.66667 8.67681 4.7369 8.84638 4.86193 8.9714C4.98695 9.09643 5.15652 9.16667 5.33333 9.16667C5.51014 9.16667 5.67971 9.09643 5.80474 8.9714C5.92976 8.84638 6 8.67681 6 8.5C6 8.32319 5.92976 8.15362 5.80474 8.0286C5.67971 7.90357 5.51014 7.83333 5.33333 7.83333ZM10.6667 2.5C11.5373 2.5 12.2787 3.05667 12.5533 3.83333H13.3333C13.5101 3.83333 13.6797 3.90357 13.8047 4.0286C13.9298 4.15362 14 4.32319 14 4.5C14 4.67681 13.9298 4.84638 13.8047 4.9714C13.6797 5.09643 13.5101 5.16667 13.3333 5.16667H12.5533C12.4156 5.55702 12.1602 5.89504 11.8223 6.13414C11.4844 6.37324 11.0806 6.50163 10.6667 6.50163C10.2527 6.50163 9.84897 6.37324 9.51107 6.13414C9.17316 5.89504 8.91774 5.55702 8.78 5.16667H2.66667C2.48986 5.16667 2.32029 5.09643 2.19526 4.9714C2.07024 4.84638 2 4.67681 2 4.5C2 4.32319 2.07024 4.15362 2.19526 4.0286C2.32029 3.90357 2.48986 3.83333 2.66667 3.83333H8.78C8.91801 3.44328 9.17355 3.10561 9.51143 2.86683C9.84932 2.62804 10.2529 2.49988 10.6667 2.5ZM10.6667 3.83333C10.4899 3.83333 10.3203 3.90357 10.1953 4.0286C10.0702 4.15362 10 4.32319 10 4.5C10 4.67681 10.0702 4.84638 10.1953 4.9714C10.3203 5.09643 10.4899 5.16667 10.6667 5.16667C10.8435 5.16667 11.013 5.09643 11.1381 4.9714C11.2631 4.84638 11.3333 4.67681 11.3333 4.5C11.3333 4.32319 11.2631 4.15362 11.1381 4.0286C11.013 3.90357 10.8435 3.83333 10.6667 3.83333Z" fill="#3B3B3B"/>
</g>
<defs>
<clipPath id="clip0_1_292">
<rect width="16" height="16" fill="white" transform="translate(0 0.5)"/>
</clipPath>
</defs>
</svg>
