<svg width="14" height="14" viewBox="0 0 14 14" fill="none" xmlns="http://www.w3.org/2000/svg">
<path d="M11.7005 2.27329C11.0893 1.65591 10.3613 1.1664 9.55895 0.833326C8.75658 0.500248 7.89593 0.330265 7.02719 0.333292C3.38719 0.333292 0.420521 3.29996 0.420521 6.93996C0.420521 8.10662 0.727188 9.23996 1.30052 10.24L0.367188 13.6666L3.86719 12.7466C4.83385 13.2733 5.92052 13.5533 7.02719 13.5533C10.6672 13.5533 13.6339 10.5866 13.6339 6.94662C13.6339 5.17996 12.9472 3.51996 11.7005 2.27329ZM7.02719 12.4333C6.04052 12.4333 5.07385 12.1666 4.22719 11.6666L4.02719 11.5466L1.94719 12.0933L2.50052 10.0666L2.36719 9.85996C1.81902 8.9846 1.52795 7.97279 1.52719 6.93996C1.52719 3.91329 3.99385 1.44663 7.02052 1.44663C8.48719 1.44663 9.86719 2.01996 10.9005 3.05996C11.4122 3.56927 11.8177 4.17507 12.0934 4.84224C12.3692 5.50942 12.5099 6.2247 12.5072 6.94662C12.5205 9.97329 10.0539 12.4333 7.02719 12.4333ZM10.0405 8.32662C9.87385 8.24662 9.06052 7.84663 8.91385 7.78662C8.76052 7.73329 8.65385 7.70662 8.54052 7.86662C8.42719 8.03329 8.11385 8.40662 8.02052 8.51329C7.92719 8.62663 7.82719 8.63996 7.66052 8.55329C7.49385 8.47329 6.96052 8.29329 6.33385 7.73329C5.84052 7.29329 5.51385 6.75329 5.41385 6.58663C5.32052 6.41996 5.40052 6.33329 5.48719 6.24662C5.56052 6.17329 5.65385 6.05329 5.73385 5.95996C5.81385 5.86662 5.84719 5.79329 5.90052 5.68662C5.95385 5.57329 5.92719 5.47996 5.88719 5.39996C5.84719 5.31996 5.51385 4.50663 5.38052 4.17329C5.24719 3.85329 5.10719 3.89329 5.00719 3.88663H4.68719C4.57385 3.88663 4.40052 3.92663 4.24719 4.09329C4.10052 4.25996 3.67385 4.65996 3.67385 5.47329C3.67385 6.28663 4.26719 7.07329 4.34719 7.17996C4.42719 7.29329 5.51385 8.95996 7.16719 9.67329C7.56052 9.84663 7.86719 9.94663 8.10719 10.02C8.50052 10.1466 8.86052 10.1266 9.14719 10.0866C9.46719 10.04 10.1272 9.68662 10.2605 9.29996C10.4005 8.91329 10.4005 8.58663 10.3539 8.51329C10.3072 8.43996 10.2072 8.40662 10.0405 8.32662Z" fill="white"/>
</svg>
